<?xml version="1.0" encoding="iso-8859-1"?>
<!-- Generator: Adobe Illustrator 23.0.6, SVG Export Plug-In . SVG Version: 6.00 Build 0)  -->
<svg version="1.1" id="_x31_" xmlns="http://www.w3.org/2000/svg" xmlns:xlink="http://www.w3.org/1999/xlink" x="0px" y="0px"
	 viewBox="0 0 86.699 94.513" style="enable-background:new 0 0 86.699 94.513;" xml:space="preserve">
<g>
	<path style="fill:#EC1C24;" d="M28.448,64.82c-0.952-1.308-2.032-2.79-2.032-3.405c0-0.054-0.005-0.107-0.016-0.16
		c-0.314-1.521-0.383-1.988,0.113-2.626c0.268-0.345,0.207-0.843-0.139-1.111c-0.237-0.184-0.546-0.213-0.804-0.1
		c0.003-0.05,0.005-0.101,0.008-0.151c0.198-3.907,0.086-19.824,0.618-23.504c0.267-1.847,0.596-3.577,0.913-5.251
		c0.677-3.573,1.263-6.659,0.937-9.317c-0.668-5.46-2.404-7.947-5.313-7.606c-0.117,0.014-0.23,0.054-0.329,0.116
		c-0.754,0.475-1.602,1.82-2.12,11.819c-0.303,5.851-0.386,12.655-0.447,17.623c-0.033,2.72-0.06,4.899-0.113,5.712
		c-0.423,0.316-0.702,0.852-0.702,1.458c0,0.788,0.664,1.639,1.396,1.914c0.001,0.001,0.001,0.001,0.002,0.001l0.189,0.968
		c0,0-2.032,2.349-0.237,2.85c1.794,0.502,1.068-1.9,1.068-1.9s0.278-0.211,0.278-0.554c0-0.343-0.449-0.66-0.449-0.66l-0.078-0.655
		c0.691-0.2,1.004-1.085,1.004-1.964c0-0.687-0.359-1.282-0.879-1.571c0.048-0.972,0.072-2.96,0.104-5.58
		c0.059-4.838,0.14-11.464,0.427-17.208c0.414-8.292,1.061-10.325,1.349-10.821c0.855-0.029,2.566,0.43,3.277,6.248
		c0.295,2.413-0.268,5.387-0.921,8.83c-0.32,1.69-0.652,3.437-0.924,5.319c-0.543,3.753-0.433,19.707-0.632,23.65
		c-0.099,1.955-0.193,3.802-0.323,5.488c-0.506,6.534-0.684,10.937,1.372,12.549c0.52,0.408,1.152,0.612,1.89,0.612
		c0.526,0,1.105-0.104,1.735-0.311c0.005-0.002,0.01-0.004,0.015-0.005c1.642-0.579,2.663-1.482,3.037-2.685
		C32.488,70.369,30.342,67.421,28.448,64.82z M20.649,53.497c-0.241,0-0.436-0.183-0.436-0.409c0-0.226,0.22-1.036,0.461-1.036
		c0.067,0.521,0.41,0.81,0.41,1.036C21.085,53.314,20.889,53.497,20.649,53.497z M21.636,48.318c0,0.276-0.045,0.615-0.151,0.895
		c-0.131-0.229-0.376-0.386-0.659-0.386c-0.344,0-0.631,0.229-0.726,0.541c-0.291-0.28-0.517-0.672-0.517-1.05
		c0-0.313,0.104-0.598,0.274-0.812c0.13,0.187,0.335,0.318,0.579,0.339c0.349,0.03,0.662-0.174,0.793-0.48
		C21.476,47.585,21.636,47.93,21.636,48.318z M30.21,72.364c-0.22,0.707-0.888,1.249-2.044,1.658
		c-1.47,0.483-1.978,0.085-2.144-0.045c-1.535-1.203-1.135-6.463-0.774-11.123c0.419,0.838,1.117,1.797,1.92,2.899
		C28.759,67.938,30.74,70.658,30.21,72.364z"/>
	<path style="fill-rule:evenodd;clip-rule:evenodd;fill:#EC1C24;" d="M75.738,42.462C69.955,56.21,63.176,56.447,63.176,56.447
		c-4.124-3.698-16.853-20.436-18.133-23.139c-1.28-2.703-3.413-16.71-2.275-16.567c1.138,0.142,0.237,3.179,1.493,4.337
		c1.255,1.158,5.734,1.633,5.901-3.768c-2.633-11.964-9.576-5.475-9.576-5.475s-1.706-3.887-4.93-3.319
		c-7.55,1.798-9.101,0.269-10.072-0.698c0.038-0.115,0.06-0.238,0.06-0.366c0-0.643-0.521-1.165-1.165-1.165
		c-0.643,0-1.165,0.522-1.165,1.165c0,0,0,0.001,0,0.001c-1.589,0.798-3.244,3.309-0.931,8.08
		c3.034,6.257,10.05,4.835,12.421,10.903c2.371,6.067-2.181,7.584-2.56,7.584c-0.379,0-4.456-3.792-5.309-5.973
		c-0.772-1.972-2.938-0.611-7.202-0.121c-0.785,0.09-1.074,0.665-0.502,1.208c2.957,2.806,6.397,1.386,6.397,1.386
		s2.61,2.262,3.177,4.16c-6.542,2.086-12.491-5.399-12.491-5.399c-1.517-1.277-4.58,0.202-7.208,0.701
		c-0.776,0.147-1.164,0.751-0.665,1.363c2.482,3.043,7.238,2.188,7.493,2.203c0.697,0.043,3.767-0.681,6.827,3.603
		c3.793,5.309,8.248,3.413,8.248,3.413c-3.319,14.032,6.636,14.435,9.41,15.715c2.774,1.28,12.26,5.547,10.126,6.968
		c-8.745,6.684-2.874,9.671-2.02,10.31c0.854,0.639,4.55,0.71,4.764,3.911c0.213,3.2-3.057,8.319-4.267,8.106
		c-1.21-0.213-1.564-2.205-3.2,0.285c-1.636,2.488,1.28,2.346,3.129,2.916c1.849,0.569,3.911,0.426,4.052-3.057
		c5.119,1.493,6.897,0.498,7.181-1.351c0.284-1.849,2.56-6.116,3.839-7.252c1.28-1.138,2.418-2.631,1.92-3.057
		c-0.498-0.426-5.049-4.55-3.982-6.186c2.773-2.275,2.774-8.148,2.774-8.148C74.601,54.598,75.738,42.462,75.738,42.462z
		 M60.733,77.963c-0.259,1.094-2.557,6.05-3.505,5.316c-2.032-1.364-2.635-0.671-2.515-1.145c0.206-0.814,3.698-4.361,3.792-5.356
		c0.094-0.995-3.27-1.659-4.503-3.508c-1.233-1.849,1.99-3.081,1.99-3.081s0.17-0.104,0.19,0c0.139,0.748,1.659,2.559,3.651,3.651
		C61.824,74.928,61.072,76.531,60.733,77.963z"/>
	<path style="fill:#EC1C24;" d="M21.421,41.168c0.059-4.838,0.14-11.464,0.427-17.208c0.414-8.292,1.061-10.325,1.349-10.821
		l-0.793-1.433c-0.754,0.475-1.602,1.82-2.12,11.819c-0.303,5.851-0.386,12.655-0.447,17.623L21.421,41.168z"/>
	<path style="fill-rule:evenodd;clip-rule:evenodd;fill:#EC1C24;" d="M23.313,7.453c-1.589,0.798-3.244,3.309-0.931,8.08
		c3.034,6.257,10.05,4.835,12.421,10.903"/>
</g>
</svg>
