<?xml version="1.0" encoding="iso-8859-1"?>
<!-- Generator: Adobe Illustrator 23.0.6, SVG Export Plug-In . SVG Version: 6.00 Build 0)  -->
<svg version="1.1" id="Capa_1" xmlns="http://www.w3.org/2000/svg" xmlns:xlink="http://www.w3.org/1999/xlink" x="0px" y="0px"
	 viewBox="0 0 56.436 97.348" style="enable-background:new 0 0 56.436 97.348;" xml:space="preserve">
<g>
	<g>
		<circle style="fill:#0075BE;" cx="34.158" cy="11.709" r="10.08"/>
		<path style="fill:#0075BE;" d="M51.929,43.426c-7.507-1.032-9.096-4.524-11.5-9.807c-1.304-2.867-2.783-6.117-5.428-8.984
			c-0.019-0.021-0.043-0.035-0.063-0.056c-0.924-1.021-2.052-1.846-3.203-2.404c0,0-0.972-0.532-2.082-0.745
			c-1.061-0.204-2.898-0.15-4.062-0.008C13.297,23.22,7.842,32.303,2.583,41.115l-0.538,0.902c-1.109,1.854-0.505,4.257,1.35,5.367
			c0.629,0.376,1.321,0.555,2.005,0.555c1.331,0,2.629-0.679,3.362-1.905l0.542-0.908c2.713-4.547,5.125-8.567,8.206-11.473
			l-3.304,15.421c-0.462,2.156,0.142,4.145,1.339,5.76l-1.012,15.439L8.099,86.907c-0.992,2.566,0.283,5.451,2.849,6.442
			c0.59,0.229,1.198,0.337,1.795,0.337c1.998,0,3.882-1.211,4.646-3.186l6.708-17.346c0.182-0.471,0.292-0.967,0.325-1.471
			l0.589-8.988l5.918,9.354l4.845,17.833c0.594,2.229,2.608,3.699,4.809,3.697c0.424,0,0.856-0.055,1.287-0.168
			c2.658-0.709,4.238-3.438,3.529-6.096l-5.041-18.57c-0.13-0.486-0.333-0.952-0.604-1.379l-8.058-12.734
			c0.258-0.514,0.465-1.07,0.597-1.686l2.697-12.585c2.394,4.525,6.093,9.048,14.573,10.593l2.11,0.242
			c1.818-0.119,3.366-1.486,3.622-3.362c0.121-0.882-0.075-1.728-0.483-2.448C54.812,45.386,53.512,43.662,51.929,43.426z"/>
	</g>
</g>
</svg>
